<svg width="368" height="298" viewBox="0 0 368 298" fill="none" xmlns="http://www.w3.org/2000/svg">
<path d="M128.815 7.24808L132.381 16.3193C205.451 -12.2706 287.874 23.7639 316.464 96.8339L325.535 93.268C327.38 92.5486 329.445 93.4557 330.133 95.3012C358.629 173.251 320.718 259.99 244.113 291.99C242.299 292.74 240.203 291.833 239.484 290.019L235.918 280.948C162.848 309.569 80.4251 273.503 51.8039 200.433L42.7327 203.999C40.8872 204.719 38.8227 203.811 38.1345 201.966C9.6385 124.016 47.5498 37.2769 124.123 5.27744C126 4.49544 128.096 5.43384 128.815 7.24808Z" fill="#FFE84D" stroke="white" stroke-width="2" stroke-miterlimit="10" stroke-linecap="round" stroke-linejoin="round"/>
<mask id="mask0" mask-type="alpha" maskUnits="userSpaceOnUse" x="27" y="3" width="327" height="291">
<path d="M128.815 7.24808L132.381 16.3193C205.451 -12.2706 321 13.5 316.464 96.8339L325.535 93.268C327.38 92.5486 329.445 93.4557 330.133 95.3012C358.629 173.251 383 303.5 244.113 291.99C242.299 292.74 240.203 291.833 239.484 290.019L235.918 280.948C162.848 309.569 80.4252 273.503 51.804 200.433L42.7328 203.999C40.8873 204.719 38.8228 203.811 38.1346 201.966C9.6386 124.016 47.5499 37.2769 124.123 5.27744C126 4.49544 128.096 5.43384 128.815 7.24808Z" fill="#FFE84D" stroke="white" stroke-width="2" stroke-miterlimit="10" stroke-linecap="round" stroke-linejoin="round"/>
</mask>
<g mask="url(#mask0)">
<path d="M101.801 175.642H48.7795V216.844H101.801V175.642Z" fill="#FFE84D" stroke="black" stroke-width="1.2" stroke-miterlimit="10" stroke-linecap="round" stroke-linejoin="round"/>
<path d="M141.099 71.9708L147.376 68.4984L151.282 70.9358L150.348 68.4984C150.348 68.4984 157.493 70.4683 162.1 74.3748C166.675 78.2813 168.244 80.752 168.244 80.752C168.244 80.752 178.227 76.5117 180.865 77.4132C183.502 78.3147 185.973 80.919 185.973 80.919L201.198 94.9088V100.184L177.726 92.1375L159.83 92.0374L158.528 90.5015L151.716 89.8337L141.099 71.9708Z" fill="white"/>
<path d="M148.378 39.1833C148.378 39.1833 149.78 34.609 154.02 35.978C158.261 37.3469 166.808 40.7525 169.513 48.265C172.184 55.7774 171.616 59.8842 167.443 60.1179C163.236 60.3516 149.68 60.0177 148.378 39.1833Z" fill="white"/>
<path d="M210.113 19.9179C210.113 19.9179 211.849 32.9729 214.353 37.6473C216.857 42.3217 220.63 44.9928 222.366 44.158C225.171 42.7891 225.739 39.9511 226.006 40.3184C226.273 40.6522 225.204 44.158 225.204 44.158L231.014 63.7905L226.674 62.1211L222.901 47.2298V46.1947C222.901 46.1947 220.23 48.2982 218.093 47.6305C215.956 46.9293 213.819 44.9928 211.983 41.4202C210.146 37.8476 210.146 37.8476 210.146 37.8476C210.146 37.8476 206.54 39.3835 206.173 38.1147C205.806 36.8126 207.909 34.8092 207.909 34.8092L209.211 33.5405C209.211 33.5405 207.208 21.7543 208.877 19.9847C210.547 18.1484 210.113 19.9179 210.113 19.9179Z" fill="white"/>
<path d="M242.099 143.322C238.126 158.948 232.183 175.108 228.677 192.17C224.036 214.907 220.363 236.743 217.425 257.511C215.522 257.578 212.216 257.978 208.644 259.781C206.207 260.983 204.737 261.952 203.736 262.853C202.834 263.654 203.101 265.124 204.237 265.558C211.782 268.295 217.726 269.23 225.104 270.533C226.206 270.733 227.275 270.165 227.742 269.164C235.555 253.037 243.234 235.374 250.346 216.209C254.019 206.326 257.324 196.644 260.296 187.261C265.471 175.475 282.7 143.522 283.334 130.434C273.518 127.463 263.435 125.993 253.618 123.022" fill="black"/>
<path d="M242.099 143.322C238.126 158.948 232.183 175.108 228.677 192.17C224.036 214.907 220.363 236.743 217.425 257.511C215.522 257.578 212.216 257.978 208.644 259.781C206.207 260.983 204.737 261.952 203.736 262.853C202.834 263.654 203.101 265.124 204.237 265.558C211.782 268.295 217.726 269.23 225.104 270.533C226.206 270.733 227.275 270.165 227.742 269.164C235.555 253.037 243.234 235.374 250.346 216.209C254.019 206.326 257.324 196.644 260.296 187.261C265.471 175.475 282.7 143.522 283.334 130.434C273.518 127.463 263.435 125.993 253.618 123.022" stroke="black" stroke-width="1.2" stroke-miterlimit="10" stroke-linecap="round" stroke-linejoin="round"/>
<path d="M236.924 132.471L226.707 135.977C227.275 146.561 229.312 162.187 233.218 176.477C235.822 185.993 238.961 194.34 242.099 201.518L300.63 240.85C297.858 247.294 299.561 254.005 300.897 257.478C301.231 258.312 302.366 258.413 302.833 257.645C307.207 250.666 310.98 244.59 315.454 237.445C316.422 235.909 316.255 233.872 315.02 232.536C306.973 223.722 297.558 214.406 286.573 205.091C279.094 198.747 271.782 193.171 264.804 188.23C264.336 179.949 263.969 171.469 263.702 162.821C263.535 156.845 263.401 150.968 263.335 145.192" fill="black"/>
<path d="M236.924 132.471L226.707 135.977C227.275 146.561 229.312 162.187 233.218 176.477C235.822 185.993 238.961 194.34 242.099 201.518L300.63 240.85C297.858 247.294 299.561 254.005 300.897 257.478C301.231 258.312 302.366 258.413 302.833 257.645C307.207 250.666 310.98 244.59 315.454 237.445C316.422 235.909 316.255 233.872 315.02 232.536C306.973 223.722 297.558 214.406 286.573 205.091C279.094 198.747 271.782 193.171 264.804 188.23C264.336 179.949 263.969 171.469 263.702 162.821C263.535 156.845 263.401 150.968 263.335 145.192" stroke="black" stroke-width="1.2" stroke-miterlimit="10" stroke-linecap="round" stroke-linejoin="round"/>
<path d="M250.446 220.183C252.45 214.24 253.685 203.822 255.021 199.081C258.493 192.036 268.61 173.105 272.082 166.06" stroke="#FFE84D" stroke-width="1.2" stroke-miterlimit="10" stroke-linecap="round" stroke-linejoin="round"/>
<path d="M243.902 146.227C238.293 160.417 232.049 175.876 227.141 192.27" stroke="#FFE84D" stroke-width="1.2" stroke-miterlimit="10" stroke-linecap="round" stroke-linejoin="round"/>
<path d="M289.444 270.967H321.865" stroke="black" stroke-width="1.2" stroke-miterlimit="10" stroke-linecap="round" stroke-linejoin="round"/>
<path d="M226.974 61.587C226.306 61.8207 226.44 57.1129 225.839 57.547C216.757 63.6905 213.218 87.1292 208.711 87.5299C204.37 87.9306 195.722 78.8155 196.09 79.2495L196.056 79.2829C195.589 80.919 194.253 82.3881 193.051 84.5583C192.684 85.2261 192.25 85.8271 191.816 86.3613C194.888 89.1993 198.026 92.0707 201.332 94.9422C201.265 95.7769 201.298 95.8437 201.265 96.7785C201.232 98.5147 201.332 100.151 201.499 101.586C198.093 98.6817 194.721 95.7435 191.315 92.8387C191.616 93.4397 191.95 94.0407 192.35 94.6083C195.055 98.882 199.829 104.992 201.499 106.394C206.34 110.368 215.088 108.164 220.397 104.825C225.338 101.72 238.727 79.9841 243.335 75.1761L226.974 61.587Z" fill="white"/>
<path d="M151.383 160.818H101.701V168.43H151.383V160.818Z" stroke="black" stroke-width="1.2" stroke-miterlimit="10" stroke-linecap="round" stroke-linejoin="round"/>
<path d="M151.383 153.472H101.701V157.145H151.383V153.472Z" stroke="black" stroke-width="1.2" stroke-miterlimit="10" stroke-linecap="round" stroke-linejoin="round"/>
<path d="M113.954 153.673L105.674 126.661H101.734V153.94H114.154C114.054 153.873 113.987 153.773 113.954 153.673Z" fill="black"/>
<path d="M130.281 133.205L128.278 126.661H107.109L115.29 153.272C115.356 153.506 115.29 153.773 115.123 153.94H151.416V133.172H130.281V133.205Z" fill="black"/>
<path d="M151.383 134.474H162.701L159.73 126.661H140.298L138.261 120.117H111.717L121.967 153.472H151.383V134.474Z" fill="white" stroke="black" stroke-width="1.2" stroke-miterlimit="10" stroke-linecap="round" stroke-linejoin="round"/>
<path d="M151.383 134.474H195.623L192.618 126.661H173.186L171.182 120.117H144.605L151.383 142.12V134.474Z" fill="white" stroke="black" stroke-width="1.2" stroke-miterlimit="10" stroke-linecap="round" stroke-linejoin="round"/>
<path d="M62.3354 271H65.8079L76.993 258.079H68.8128L62.3354 271Z" fill="black" stroke="black" stroke-width="1.2" stroke-miterlimit="10" stroke-linecap="round" stroke-linejoin="round"/>
<path d="M141.166 271H137.693L126.508 258.079H134.688L141.166 271Z" fill="black" stroke="black" stroke-width="1.2" stroke-miterlimit="10" stroke-linecap="round" stroke-linejoin="round"/>
<path d="M41 271H255.488" stroke="black" stroke-width="1.2" stroke-miterlimit="10" stroke-linecap="round" stroke-linejoin="round"/>
<path d="M172.417 222.253H166.407V271H172.417V222.253Z" stroke="black" stroke-width="1.2" stroke-miterlimit="10" stroke-linecap="round" stroke-linejoin="round"/>
<path d="M176.724 221.151L172.417 222.653V241.585L182.601 270.833L192.784 267.26L176.724 221.151Z" fill="#FFE84D" stroke="black" stroke-width="1.2" stroke-miterlimit="10" stroke-linecap="round" stroke-linejoin="round"/>
<path d="M182.601 270.833L172.417 241.585V271H183.602V270.466L182.601 270.833Z" fill="black"/>
<path d="M67.2432 98.9822H88.8122L81.0994 102.521H67.9443" stroke="black" stroke-width="1.2" stroke-miterlimit="10" stroke-linecap="round" stroke-linejoin="round"/>
<path d="M88.8317 98.9832L81.0933 102.533L95.6393 134.245L103.378 130.696L88.8317 98.9832Z" stroke="black" stroke-width="1.2" stroke-miterlimit="10" stroke-linecap="round" stroke-linejoin="round"/>
<path d="M59.4306 98.9822H48.2788V134.241H59.4306V98.9822Z" fill="black" stroke="black" stroke-width="1.2" stroke-miterlimit="10" stroke-linecap="round" stroke-linejoin="round"/>
<path d="M71.9178 108.464H67.9446V134.24H71.9178V108.464Z" fill="black"/>
<path d="M95.6237 134.24L81.0997 102.521H67.9446V107.095H78.7625V134.24H95.6237Z" fill="black"/>
<path d="M67.978 98.9822H59.4639V134.241H67.978V98.9822Z" stroke="black" stroke-width="1.2" stroke-miterlimit="10" stroke-linecap="round" stroke-linejoin="round"/>
<path d="M101.801 134.441H48.7795V175.642H101.801V134.441Z" fill="#FFE84D" stroke="black" stroke-width="1.2" stroke-miterlimit="10" stroke-linecap="round" stroke-linejoin="round"/>
<path d="M86.0412 155.042H64.5056V164.991H86.0412V155.042Z" fill="white" stroke="black" stroke-width="1.2" stroke-miterlimit="10" stroke-linecap="round" stroke-linejoin="round"/>
<path d="M81.5336 144.858C81.5336 146.594 78.7289 148.03 75.2899 148.03C71.8509 148.03 69.0462 146.628 69.0462 144.858H60.7659" stroke="black" stroke-width="1.2" stroke-miterlimit="10" stroke-linecap="round" stroke-linejoin="round"/>
<path d="M69.0462 144.858H60.7659" stroke="black" stroke-width="1.2" stroke-miterlimit="10" stroke-linecap="round" stroke-linejoin="round"/>
<path d="M89.7807 144.858H81.5337" stroke="black" stroke-width="1.2" stroke-miterlimit="10" stroke-linecap="round" stroke-linejoin="round"/>
<path d="M86.0412 196.243H64.5056V206.193H86.0412V196.243Z" fill="white" stroke="black" stroke-width="1.2" stroke-miterlimit="10" stroke-linecap="round" stroke-linejoin="round"/>
<path d="M81.5336 186.06C81.5336 187.796 78.7289 189.231 75.2899 189.231C71.8509 189.231 69.0462 187.829 69.0462 186.06H60.7659" stroke="black" stroke-width="1.2" stroke-miterlimit="10" stroke-linecap="round" stroke-linejoin="round"/>
<path d="M69.0462 186.06H60.7659" stroke="black" stroke-width="1.2" stroke-miterlimit="10" stroke-linecap="round" stroke-linejoin="round"/>
<path d="M89.7807 186.06H81.5337" stroke="black" stroke-width="1.2" stroke-miterlimit="10" stroke-linecap="round" stroke-linejoin="round"/>
<path d="M101.801 216.844H48.7795V258.045H101.801V216.844Z" fill="#FFE84D" stroke="black" stroke-width="1.2" stroke-miterlimit="10" stroke-linecap="round" stroke-linejoin="round"/>
<path d="M86.0412 237.478H64.5056V247.428H86.0412V237.478Z" fill="white" stroke="black" stroke-width="1.2" stroke-miterlimit="10" stroke-linecap="round" stroke-linejoin="round"/>
<path d="M81.5336 227.294C81.5336 229.031 78.7289 230.466 75.2899 230.466C71.8509 230.466 69.0462 229.064 69.0462 227.294H60.7659" stroke="black" stroke-width="1.2" stroke-miterlimit="10" stroke-linecap="round" stroke-linejoin="round"/>
<path d="M69.0462 227.294H60.7659" stroke="black" stroke-width="1.2" stroke-miterlimit="10" stroke-linecap="round" stroke-linejoin="round"/>
<path d="M89.7807 227.294H81.5337" stroke="black" stroke-width="1.2" stroke-miterlimit="10" stroke-linecap="round" stroke-linejoin="round"/>
<path d="M154.722 175.642H101.701V216.844H154.722V175.642Z" stroke="black" stroke-width="1.2" stroke-miterlimit="10" stroke-linecap="round" stroke-linejoin="round"/>
<path d="M138.995 196.243H117.46V206.193H138.995V196.243Z" fill="white" stroke="black" stroke-width="1.2" stroke-miterlimit="10" stroke-linecap="round" stroke-linejoin="round"/>
<path d="M134.455 186.06C134.455 187.796 131.65 189.231 128.211 189.231C124.772 189.231 121.967 187.829 121.967 186.06H113.687" stroke="black" stroke-width="1.2" stroke-miterlimit="10" stroke-linecap="round" stroke-linejoin="round"/>
<path d="M121.967 186.06H113.687" stroke="black" stroke-width="1.2" stroke-miterlimit="10" stroke-linecap="round" stroke-linejoin="round"/>
<path d="M142.735 186.06H134.455" stroke="black" stroke-width="1.2" stroke-miterlimit="10" stroke-linecap="round" stroke-linejoin="round"/>
<path d="M154.722 216.844H101.701V258.045H154.722V216.844Z" fill="#FFE84D" stroke="black" stroke-width="1.2" stroke-miterlimit="10" stroke-linecap="round" stroke-linejoin="round"/>
<path d="M154.721 222.219V258.079H149.045V271H166.374V222.219H154.721Z" fill="black" stroke="black" stroke-width="1.2" stroke-miterlimit="10" stroke-linecap="round" stroke-linejoin="round"/>
<path d="M138.995 237.478H117.46V247.428H138.995V237.478Z" fill="white" stroke="black" stroke-width="1.2" stroke-miterlimit="10" stroke-linecap="round" stroke-linejoin="round"/>
<path d="M134.455 227.294C134.455 229.031 131.65 230.466 128.211 230.466C124.772 230.466 121.967 229.064 121.967 227.294H113.687" stroke="black" stroke-width="1.2" stroke-miterlimit="10" stroke-linecap="round" stroke-linejoin="round"/>
<path d="M121.967 227.294H113.687" stroke="black" stroke-width="1.2" stroke-miterlimit="10" stroke-linecap="round" stroke-linejoin="round"/>
<path d="M142.735 227.294H134.455" stroke="black" stroke-width="1.2" stroke-miterlimit="10" stroke-linecap="round" stroke-linejoin="round"/>
<path d="M154.755 132.104H128.211L134.788 153.472H151.383V134.474H155.489L154.755 132.104Z" fill="black" stroke="black" stroke-width="1.2" stroke-miterlimit="10" stroke-linecap="round" stroke-linejoin="round"/>
<path d="M151.383 168.43H101.701V175.742H151.383V168.43Z" fill="black" stroke="black" stroke-width="1.2" stroke-miterlimit="10" stroke-linecap="round" stroke-linejoin="round"/>
<path d="M204.404 134.474H151.383V175.742H204.404V134.474Z" stroke="black" stroke-width="1.2" stroke-miterlimit="10" stroke-linecap="round" stroke-linejoin="round"/>
<path d="M188.678 155.108H167.142V165.092H188.678V155.108Z" fill="white" stroke="black" stroke-width="1.2" stroke-miterlimit="10" stroke-linecap="round" stroke-linejoin="round"/>
<path d="M184.137 144.925C184.137 146.694 181.332 148.097 177.893 148.097C174.454 148.097 171.65 146.661 171.65 144.925H163.369" stroke="black" stroke-width="1.2" stroke-miterlimit="10" stroke-linecap="round" stroke-linejoin="round"/>
<path d="M171.65 144.925H163.369" stroke="black" stroke-width="1.2" stroke-miterlimit="10" stroke-linecap="round" stroke-linejoin="round"/>
<path d="M192.417 144.925H184.137" stroke="black" stroke-width="1.2" stroke-miterlimit="10" stroke-linecap="round" stroke-linejoin="round"/>
<path d="M174.588 56.9459L179.496 61.6537L176.691 64.5919L172.651 60.7188" stroke="black" stroke-width="1.2" stroke-miterlimit="10" stroke-linecap="round" stroke-linejoin="round"/>
<path d="M180.397 69.8338L175.823 65.4599L180.297 60.7855L192.383 72.3714C193.686 73.6067 193.719 75.6434 192.484 76.9456C192.317 77.1125 192.15 77.2461 191.949 77.3796" fill="#FFE84D"/>
<path d="M180.397 69.8338L175.823 65.4599L180.297 60.7855L192.383 72.3714C193.686 73.6067 193.719 75.6434 192.484 76.9456C192.317 77.1125 192.15 77.2461 191.949 77.3796" stroke="black" stroke-width="1.2" stroke-miterlimit="10" stroke-linecap="round" stroke-linejoin="round"/>
<path d="M144.838 35.1766L147.543 32.5723C152.284 27.6308 162.234 29.5006 169.746 36.7125C177.292 43.9578 179.529 53.8074 174.821 58.7489L172.117 61.3533" stroke="black" stroke-width="1.2" stroke-miterlimit="10" stroke-linecap="round" stroke-linejoin="round"/>
<path d="M167.042 39.3167C174.588 46.5621 176.825 56.4117 172.117 61.3532C167.376 66.2947 157.426 64.4249 149.913 57.213C142.368 49.9677 140.131 40.1181 144.838 35.1766C149.546 30.2351 159.529 32.1048 167.042 39.3167Z" stroke="black" stroke-width="1.2" stroke-miterlimit="10" stroke-linecap="round" stroke-linejoin="round"/>
<path d="M185.773 66.5618C189.813 70.2011 191.115 71.0692 192.317 70.1677C193.352 69.3998 191.983 67.4299 190.881 65.9942C189.913 64.692 188.945 64.091 187.91 63.4232C186.775 62.6887 184.371 62.7889 182.668 62.9892" stroke="black" stroke-width="1.2" stroke-miterlimit="10" stroke-linecap="round" stroke-linejoin="round"/>
<path d="M185.072 80.151C190.814 75.6436 191.916 73.2062 191.115 72.5718C190.347 71.9708 188.577 72.672 185.906 74.909" stroke="black" stroke-width="1.2" stroke-miterlimit="10" stroke-linecap="round" stroke-linejoin="round"/>
<path d="M182.768 77.4465C187.91 73.8406 189.646 70.3014 188.945 69.7338C188.377 69.2997 186.841 69.5668 185.372 71.0025" stroke="black" stroke-width="1.2" stroke-miterlimit="10" stroke-linecap="round" stroke-linejoin="round"/>
<path d="M187.242 82.0875C192.184 78.782 192.751 76.111 192.05 75.6435C191.249 75.1093 189.98 75.9106 189.312 76.3447" stroke="black" stroke-width="1.2" stroke-miterlimit="10" stroke-linecap="round" stroke-linejoin="round"/>
<path d="M176.958 66.5286C175.489 68.799 174.421 70.8357 174.354 72.7722C174.354 74.5418 174.955 76.3114 175.856 77.8807" stroke="black" stroke-width="1.2" stroke-miterlimit="10" stroke-linecap="round" stroke-linejoin="round"/>
<path d="M179.095 75.6436C181.933 74.475 189.212 68.5318 186.774 66.9292C185.406 66.0277 180.097 70.3682 177.659 71.3698" stroke="black" stroke-width="1.2" stroke-miterlimit="10" stroke-linecap="round" stroke-linejoin="round"/>
<path d="M157.393 56.4117C150.147 49.4668 147.543 40.4519 151.583 36.245C151.75 36.078 151.883 35.9445 152.05 35.8109C151.149 35.8109 150.314 35.9779 149.546 36.245C148.778 36.6122 148.077 37.0797 147.476 37.7141C147.176 38.0146 146.942 38.3484 146.708 38.6823C144.638 42.522 147.009 49.1997 152.484 54.4751C155.523 57.4133 158.962 59.3498 162.067 60.1178C160.464 59.0827 158.862 57.8474 157.393 56.4117Z" fill="black"/>
<path d="M164.638 41.8209C170.748 47.6639 172.952 55.2431 169.613 58.7489C166.274 62.2547 158.595 60.3182 152.485 54.4752C146.374 48.6322 144.171 41.053 147.51 37.5472C150.882 34.0748 158.561 35.9779 164.638 41.8209Z" stroke="black" stroke-width="1.2" stroke-miterlimit="10" stroke-linecap="round" stroke-linejoin="round"/>
<path d="M196.09 79.1826C195.622 81.6534 193.485 84.3578 191.749 86.2276" stroke="black" stroke-width="1.2" stroke-miterlimit="10" stroke-linecap="round" stroke-linejoin="round"/>
<path d="M200.564 83.5566C200.163 86.2277 198.227 88.7653 196.524 90.635" stroke="black" stroke-width="1.2" stroke-miterlimit="10" stroke-linecap="round" stroke-linejoin="round"/>
<path d="M193.185 75.9107C196.557 79.8506 203.569 87.964 208.677 87.4966C212.884 87.1293 216.257 66.5286 224.136 58.8826C224.47 58.5487 224.804 58.2482 225.171 57.9811" stroke="black" stroke-width="1.2" stroke-miterlimit="10" stroke-linecap="round" stroke-linejoin="round"/>
<path d="M164.638 41.8209C170.748 47.6639 172.952 55.2431 169.613 58.7489C166.274 62.2547 158.595 60.3182 152.485 54.4752C146.374 48.6322 144.171 41.053 147.51 37.5472C150.882 34.0748 158.561 35.9779 164.638 41.8209Z" stroke="black" stroke-width="1.2" stroke-miterlimit="10" stroke-linecap="round" stroke-linejoin="round"/>
<path d="M218.427 80.1844L226.841 135.943C234.921 140.584 270.212 139.082 283.501 130.401C284.837 123.723 282.867 115.843 281.731 106.828C279.862 91.5031 277.257 77.6802 272.583 66.6286C268.543 57.1129 257.391 50.0011 246.039 50.0011C246.54 50.8024 246.707 51.5036 246.774 52.0378C247.041 54.7089 244.704 57.5469 240.997 59.2497L233.418 63.223" fill="white"/>
<path d="M218.427 80.1844L226.841 135.943C234.921 140.584 270.212 139.082 283.501 130.401C284.837 123.723 282.867 115.843 281.731 106.828C279.862 91.5031 277.257 77.6802 272.583 66.6286C268.543 57.1129 257.391 50.0011 246.039 50.0011" stroke="black" stroke-width="1.2" stroke-miterlimit="10" stroke-linecap="round" stroke-linejoin="round"/>
<path d="M264.37 98.8485C255.889 110.568 241.599 117.78 224.47 120.017C224.47 121.052 224.971 123.389 224.971 123.389C224.971 123.389 258.927 123.923 267.107 94.5414C267.107 94.5414 266.006 96.5781 264.37 98.8485Z" fill="black"/>
<path d="M225.772 57.4134C225.572 57.5469 225.405 57.7139 225.272 57.9142C222.367 62.0544 228.143 80.752 230.58 83.2561C234.887 79.7503 255.421 58.4484 251.816 50.6355" stroke="black" stroke-width="1.2" stroke-miterlimit="10" stroke-linecap="round" stroke-linejoin="round"/>
<path d="M232.584 70.4015C232.884 69.3999 233.285 68.3314 233.752 67.2296C234.62 65.1929 235.622 63.4901 236.557 62.0878C234.487 62.1545 230.313 63.223 229.378 63.0894C229.478 64.2914 229.679 65.7271 230.146 67.3298C230.48 68.465 230.847 69.4666 231.248 70.3014C230.781 71.1361 230.28 71.9708 229.812 72.8723C229.111 74.2078 228.477 75.5434 227.943 76.8121C228.911 79.6835 229.946 81.954 230.747 82.7553C231.549 82.0875 232.984 80.6852 234.687 78.8488C234.721 75.5434 232.617 70.8022 232.584 70.4015Z" fill="black"/>
<path d="M222.367 46.3284C223.903 48.6656 225.071 53.8408 225.772 57.4134C226.04 58.7155 226.206 59.7839 226.34 60.4851C228.978 67.1628 241.265 60.4517 245.806 55.1095C247.008 53.6738 247.108 51.6038 246.039 50.0679C243.435 46.3284 240.73 42.088 238.126 37.3134C235.422 32.3719 233.285 27.6975 231.549 23.3904C225.839 20.5858 220.096 17.8479 214.354 15.0767" stroke="black" stroke-width="1.2" stroke-miterlimit="10" stroke-linecap="round" stroke-linejoin="round"/>
<path d="M208.878 33.7743C208.611 32.6725 208.377 31.5373 208.21 30.3353C206.707 20.4189 209.145 12.1719 215.322 11.6377C218.794 11.3372 221.198 12.9399 222.901 15.7779" stroke="black" stroke-width="1.2" stroke-miterlimit="10" stroke-linecap="round" stroke-linejoin="round"/>
<path d="M226.006 37.6808C225.138 43.4236 222.801 47.4636 219.295 47.8309C216.19 48.1648 212.484 44.1248 210.113 37.8143" stroke="black" stroke-width="1.2" stroke-miterlimit="10" stroke-linecap="round" stroke-linejoin="round"/>
<path d="M211.95 36.6792C208.878 38.8829 206.407 39.1834 205.94 38.2151C205.439 37.1133 206.34 36.2118 210.748 32.0382" stroke="black" stroke-width="1.2" stroke-miterlimit="10" stroke-linecap="round" stroke-linejoin="round"/>
<path d="M224.17 50.6356C224.871 49.3 225.806 47.063 226.106 44.1916C226.34 41.9545 226.841 38.9496 226.573 37.614C226.44 38.6157 225.371 41.1532 224.704 42.6891C223.969 44.2917 223.101 45.4937 222.4 46.295C222.667 46.7625 222.968 47.3301 223.235 47.9311C223.635 48.9327 223.936 49.8342 224.17 50.6356Z" fill="black"/>
<path d="M207.876 22.2886C217.358 16.7795 221.899 27.3303 223.001 26.4956C223.936 26.3286 224.069 24.4589 225.071 24.125C226.073 23.7911 227.542 23.9914 228.477 27.0298C228.644 27.564 229.011 28.0648 229.512 28.3653C229.879 28.5657 230.346 28.766 230.947 28.8328C232.116 28.9329 233.452 28.4655 233.685 28.2985C232.35 16.913 225.171 10.2353 216.791 11.07C212.383 11.5041 208.711 14.8763 207.876 22.2886Z" fill="black" stroke="black" stroke-width="1.2" stroke-miterlimit="10" stroke-linecap="round" stroke-linejoin="round"/>
<path d="M249.812 75.9106C248.043 90.6016 225.405 113.64 188.244 102.889C188.244 104.692 187.609 107.663 186.641 110.601C185.773 113.239 184.571 115.276 183.636 116.711C217.692 125.927 249.712 119.115 264.37 98.8486C266.44 95.9772 268.743 92.0707 270.48 86.8621" fill="white"/>
<path d="M249.812 75.9106C248.043 90.6016 225.405 113.64 188.244 102.889C188.244 104.692 187.609 107.663 186.641 110.601C185.773 113.239 184.571 115.276 183.636 116.711C217.692 125.927 249.712 119.115 264.37 98.8486C266.44 95.9772 268.743 92.0707 270.48 86.8621" stroke="black" stroke-width="1.2" stroke-miterlimit="10" stroke-linecap="round" stroke-linejoin="round"/>
<path d="M194.988 104.925C194.955 106.528 194.788 108.431 194.32 110.568C193.552 113.974 192.284 116.678 191.215 118.548" stroke="black" stroke-width="1.2" stroke-miterlimit="10" stroke-linecap="round" stroke-linejoin="round"/>
<path d="M181.299 76.7119C181.699 77.0792 182.067 77.4131 182.467 77.747C188.778 83.3896 194.687 89.0991 201.298 94.8753C201.232 95.71 201.265 95.7768 201.232 96.7117C201.198 98.4479 201.298 100.084 201.465 101.52C194.654 95.6432 187.843 89.8002 181.032 83.9572C180.898 83.1225 180.798 81.4865 180.831 80.3179C180.865 79.3162 181.132 77.4465 181.299 76.7119Z" stroke="black" stroke-width="1.2" stroke-miterlimit="10" stroke-linecap="round" stroke-linejoin="round"/>
<path d="M180.998 83.9573C180.664 81.954 181.031 78.6485 181.265 76.7454C178.394 77.2462 164.671 79.2495 157.526 89.8337" stroke="black" stroke-width="1.2" stroke-miterlimit="10" stroke-linecap="round" stroke-linejoin="round"/>
<path d="M181.933 83.0892C181.933 83.0892 162.234 89.4664 158.494 90.8354C160.398 92.5716 162.267 94.3412 164.17 96.0774C163.87 95.5766 163.636 94.9422 164.07 94.5081C164.972 93.6066 166.541 95.3428 170.414 97.7134C171.75 98.5815 177.76 103.323 178.895 101.987C180.13 100.985 175.89 96.0774 177.259 94.1075C177.492 93.7736 178.628 93.4397 179.462 94.1742C180.831 95.9438 181.933 97.4129 183.903 99.3495C185.372 100.785 186.774 102.087 188.277 102.922C188.277 104.625 187.676 107.396 186.841 110.101C186.574 111.002 186.24 111.87 185.906 112.638C187.91 111.269 189.913 109.7 192.384 109.032C197.158 107.763 200.464 104.692 203.536 102.455C197.258 96.2109 181.933 83.0892 181.933 83.0892Z" fill="black" stroke="black" stroke-width="1.2" stroke-miterlimit="10" stroke-linecap="round" stroke-linejoin="round"/>
<path d="M172.818 102.321C172.518 103.223 172.084 104.291 171.416 105.46C170.548 106.929 169.579 108.03 168.812 108.798" stroke="black" stroke-width="1.2" stroke-miterlimit="10" stroke-linecap="round" stroke-linejoin="round"/>
<path d="M169.813 100.852C165.105 97.5798 162.968 95.4763 163.736 94.4747C164.972 92.8052 166.808 94.7752 170.581 97.5464C171.916 98.4145 177.659 103.289 178.861 101.987C179.93 100.485 175.756 96.1775 177.125 94.2076C177.359 93.8737 178.394 92.872 179.429 94.1742C180.798 95.9438 181.9 97.4129 183.87 99.3494C185.339 100.785 186.374 101.653 188.243 102.922" stroke="black" stroke-width="1.2" stroke-miterlimit="10" stroke-linecap="round" stroke-linejoin="round"/>
<path d="M167.542 103.289C162.868 99.8503 161.299 96.9121 161.967 95.877C162.401 95.1759 163.269 95.4096 164.805 96.9455" stroke="black" stroke-width="1.2" stroke-miterlimit="10" stroke-linecap="round" stroke-linejoin="round"/>
<path d="M166.04 105.593C161.499 102.154 160.297 99.049 160.531 98.3478C160.698 97.847 161.432 97.1792 162.868 98.8487" stroke="black" stroke-width="1.2" stroke-miterlimit="10" stroke-linecap="round" stroke-linejoin="round"/>
<path d="M161.633 101.219C160.765 100.718 160.264 101.052 160.097 101.286C158.027 104.057 167.91 110.835 173.352 113.172C177.225 114.842 180.698 116.077 183.636 116.745" stroke="black" stroke-width="1.2" stroke-miterlimit="10" stroke-linecap="round" stroke-linejoin="round"/>
<path d="M249.812 75.9106C233.752 116.077 188.244 102.889 188.244 102.889C188.244 102.889 184.604 115.276 183.636 116.711C217.692 125.927 249.712 119.115 264.37 98.8486C266.44 95.9772 268.743 92.0707 270.48 86.8621" fill="white"/>
<path d="M249.812 75.9106C233.752 116.077 188.244 102.889 188.244 102.889C188.244 102.889 184.604 115.276 183.636 116.711C217.692 125.927 249.712 119.115 264.37 98.8486C266.44 95.9772 268.743 92.0707 270.48 86.8621" stroke="black" stroke-width="1.2" stroke-miterlimit="10" stroke-linecap="round" stroke-linejoin="round"/>
<path d="M194.988 104.925C194.821 106.628 192.217 116.378 191.215 118.548" stroke="black" stroke-width="1.2" stroke-miterlimit="10" stroke-linecap="round" stroke-linejoin="round"/>
<path d="M151.282 90.8354C151.65 92.5716 152.484 93.7402 154.187 93.7735C155.523 93.8069 158.06 92.8387 158.461 90.8354C157.359 90.635 156.024 90.4681 154.488 90.5015C153.286 90.5349 152.184 90.6684 151.282 90.8354Z" fill="#FFE84D" stroke="black" stroke-width="1.2" stroke-miterlimit="10" stroke-linecap="round" stroke-linejoin="round"/>
<path d="M168.21 80.7521C166.541 78.5484 164.104 75.8106 160.598 73.2396C156.524 70.2347 152.651 68.632 149.947 67.7639C151.282 70.2681 152.651 73.3064 153.786 76.879C155.456 82.121 156.09 86.8288 156.324 90.5349" stroke="black" stroke-width="1.2" stroke-miterlimit="10" stroke-linecap="round" stroke-linejoin="round"/>
<path d="M152.451 90.6349H152.551L140.665 71.303C140.131 70.6018 139.363 71.0692 139.73 71.8038C140.965 74.141 149.646 88.4981 151.282 90.8019C151.65 90.7685 152.05 90.7017 152.451 90.6349Z" fill="black" stroke="black" stroke-width="1.2" stroke-miterlimit="10" stroke-linecap="round" stroke-linejoin="round"/>
<path d="M146.842 68.4984C146.441 68.9992 142.969 71.4366 141.099 71.9708L152.585 90.635H152.484C152.418 90.635 152.351 90.6684 152.284 90.6684C152.952 90.5683 153.686 90.5015 154.488 90.5015C154.888 90.5015 155.289 90.5015 155.69 90.5015C154.721 83.8572 148.778 69.9675 146.842 68.4984Z" stroke="black" stroke-width="1.2" stroke-miterlimit="10" stroke-linecap="round" stroke-linejoin="round"/>
<path d="M155.656 90.5014C155.389 90.5014 155.088 90.5014 154.788 90.5014C155.389 90.5014 155.923 90.5348 156.457 90.5682C156.391 90.5682 156.357 90.5682 156.29 90.5682C156.057 86.8621 155.422 82.1543 153.753 76.9123C153.052 74.742 152.284 72.7721 151.483 70.9691L146.808 68.5317C148.778 69.9674 154.721 83.8571 155.656 90.5014Z" stroke="black" stroke-width="1.2" stroke-miterlimit="10" stroke-linecap="round" stroke-linejoin="round"/>
<path d="M162.835 98.6483C161.933 97.3128 161.7 96.3445 161.933 96.044C162.201 95.7435 163.236 95.2761 164.772 96.8119C164.772 96.8119 164.404 96.4781 164.137 96.044L158.461 90.802C158.06 92.8053 155.489 93.7736 154.187 93.7402C153.353 93.7068 152.752 93.4397 152.284 92.9723L161.065 101.086C161.232 101.119 161.433 101.152 161.666 101.219H161.7C160.698 99.7501 160.398 98.6817 160.631 98.3812C160.832 98.0807 161.633 97.7134 162.835 98.6483Z" stroke="black" stroke-width="1.2" stroke-miterlimit="10" stroke-linecap="round" stroke-linejoin="round"/>
<path d="M169.746 36.7125C168.645 35.6441 167.476 34.6758 166.274 33.8745L166.675 38.983C166.808 39.1165 166.942 39.2167 167.042 39.3502C174.588 46.5956 176.825 56.4452 172.117 61.3867L174.821 58.7824C179.563 53.8075 177.292 43.9245 169.746 36.7125Z" fill="black"/>
</g>
<path d="M132.381 16.3193L128.815 7.24808C128.096 5.43384 126 4.49544 124.123 5.27744C47.5498 37.2769 9.63844 124.016 38.1345 201.966C38.8227 203.811 40.8871 204.719 42.7326 203.999L51.8038 200.433C80.425 273.503 162.848 309.569 235.918 280.948L239.484 290.019C240.203 291.833 242.299 292.74 244.113 291.99" stroke="white" stroke-width="2" stroke-miterlimit="10" stroke-linecap="round" stroke-linejoin="round"/>
</svg>
